<svg xmlns="http://www.w3.org/2000/svg" viewBox="0 0 240 280" role="img" aria-label="Shukatunda — open hand, fingers spread">
  <!-- soft background blob -->
  <path d="M44,150 Q30,74 112,58 Q196,44 210,128 Q222,206 138,230 Q56,250 44,150 Z" fill="#fbf1cf"/>
  <!-- hand silhouette -->
  <path d="M96,270 L88,210 Q84,196 74,188 Q50,172 40,150 Q34,140 42,134 Q52,128 64,148
           Q74,164 92,172 Q90,120 92,70 Q93,58 102,58 Q110,58 110,72 L110,96 Q112,104 118,104
           Q120,104 121,92 L121,60 Q121,46 131,46 Q140,46 140,60 L140,98 Q142,106 148,106
           Q150,106 151,94 L151,64 Q151,50 160,50 Q169,50 169,64 L169,100 Q171,108 177,108
           Q179,108 180,98 L180,80 Q180,68 188,68 Q196,68 196,82 L196,150 Q196,210 180,240
           Q168,262 140,268 Q116,270 96,270 Z"
        fill="#f2c8a0" stroke="#c98a5e" stroke-width="3.5" stroke-linejoin="round"/>
  <!-- nails -->
  <g fill="#fae3cd">
    <ellipse cx="101" cy="69" rx="6" ry="8"/>
    <ellipse cx="130" cy="57" rx="6.2" ry="8.4"/>
    <ellipse cx="160" cy="61" rx="6" ry="8"/>
    <ellipse cx="188" cy="79" rx="5.6" ry="7.4"/>
    <ellipse cx="45" cy="142" rx="5.6" ry="7.4" transform="rotate(38 45 142)"/>
  </g>
  <!-- knuckle / palm creases -->
  <g fill="none" stroke="#c98a5e" stroke-width="2.6" stroke-linecap="round" opacity="0.65">
    <path d="M98,116 Q138,108 182,118"/>
    <path d="M104,150 Q120,186 112,210"/>
    <path d="M92,172 Q108,162 124,170"/>
  </g>
</svg>
